REM DIRINDEX 1\2,1\3,1\4
REM DIRNAME cjc105,folder01,folder02,folder03
TITLE ""
FILE "DISC2Track27.mp3" MP3
  TRACK 01 AUDIO
    TITLE "0:"
    INDEX 01 00:00:00
  TRACK 02 AUDIO
    TITLE "4:cjc105_3564"
    INDEX 01 00:00:13
  TRACK 03 AUDIO
    TITLE "0:"
    INDEX 01 00:02:73
  TRACK 04 AUDIO
    TITLE "3:cjc105_3565"
    INDEX 01 00:03:47
  TRACK 05 AUDIO
    TITLE "2:cjc105_3566"
    INDEX 01 00:04:46
  TRACK 06 AUDIO
    TITLE "3:cjc105_3567"
    INDEX 01 00:06:18
  TRACK 07 AUDIO
    TITLE "2:cjc105_3568"
    INDEX 01 00:07:03
  TRACK 08 AUDIO
    TITLE "3:cjc105_3569"
    INDEX 01 00:08:23
  TRACK 09 AUDIO
    TITLE "2:cjc105_3570"
    INDEX 01 00:09:16
  TRACK 10 AUDIO
    TITLE "3:cjc105_3571"
    INDEX 01 00:10:23
  TRACK 11 AUDIO
    TITLE "2:cjc105_3572"
    INDEX 01 00:11:25
  TRACK 12 AUDIO
    TITLE "3:cjc105_3573"
    INDEX 01 00:12:58
  TRACK 13 AUDIO
    TITLE "2:cjc105_3574"
    INDEX 01 00:13:47
  TRACK 14 AUDIO
    TITLE "3:cjc105_3575"
    INDEX 01 00:14:58
  TRACK 15 AUDIO
    TITLE "2:cjc105_3576"
    INDEX 01 00:15:68
  TRACK 16 AUDIO
    TITLE "3:cjc105_3577"
    INDEX 01 00:17:08
  TRACK 17 AUDIO
    TITLE "2:cjc105_3578"
    INDEX 01 00:18:27
  TRACK 18 AUDIO
    TITLE "3:cjc105_3579"
    INDEX 01 00:20:02
  TRACK 19 AUDIO
    TITLE "2:cjc105_3580"
    INDEX 01 00:20:73
  TRACK 20 AUDIO
    TITLE "3:cjc105_3581"
    INDEX 01 00:22:19
  TRACK 21 AUDIO
    TITLE "2:cjc105_3582"
    INDEX 01 00:23:20
  TRACK 22 AUDIO
    TITLE "3:cjc105_3583"
    INDEX 01 00:24:51
  TRACK 23 AUDIO
    TITLE "2:cjc105_3584"
    INDEX 01 00:25:31
  TRACK 24 AUDIO
    TITLE "3:cjc105_3585"
    INDEX 01 00:26:32
  TRACK 25 AUDIO
    TITLE "2:cjc105_3586"
    INDEX 01 00:27:24
  TRACK 26 AUDIO
    TITLE "3:cjc105_3587"
    INDEX 01 00:28:41
  TRACK 27 AUDIO
    TITLE "2:cjc105_3588"
    INDEX 01 00:29:40
  TRACK 28 AUDIO
    TITLE "3:cjc105_3589"
    INDEX 01 00:30:48
  TRACK 29 AUDIO
    TITLE "2:cjc105_3590"
    INDEX 01 00:31:43
  TRACK 30 AUDIO
    TITLE "3:cjc105_3591"
    INDEX 01 00:32:72
  TRACK 31 AUDIO
    TITLE "2:cjc105_3592"
    INDEX 01 00:33:68
  TRACK 32 AUDIO
    TITLE "3:cjc105_3593"
    INDEX 01 00:35:27
  TRACK 33 AUDIO
    TITLE "2:cjc105_3594"
    INDEX 01 00:36:21
  TRACK 34 AUDIO
    TITLE "3:cjc105_3595"
    INDEX 01 00:37:28
  TRACK 35 AUDIO
    TITLE "2:cjc105_3596"
    INDEX 01 00:38:31
  TRACK 36 AUDIO
    TITLE "3:cjc105_3597"
    INDEX 01 00:39:51
  TRACK 37 AUDIO
    TITLE "2:cjc105_3598"
    INDEX 01 00:40:60
  TRACK 38 AUDIO
    TITLE "3:cjc105_3599"
    INDEX 01 00:42:08
  TRACK 39 AUDIO
    TITLE "2:cjc105_3600"
    INDEX 01 00:43:05
  TRACK 40 AUDIO
    TITLE "3:cjc105_3601"
    INDEX 01 00:44:11
  TRACK 41 AUDIO
    TITLE "2:cjc105_3602"
    INDEX 01 00:45:49
  TRACK 42 AUDIO
    TITLE "3:cjc105_3603"
    INDEX 01 00:46:72
  TRACK 43 AUDIO
    TITLE "2:cjc105_3604"
    INDEX 01 00:47:52
  TRACK 44 AUDIO
    TITLE "3:cjc105_3605"
    INDEX 01 00:48:69
  TRACK 45 AUDIO
    TITLE "2:cjc105_3606"
    INDEX 01 00:49:70
  TRACK 46 AUDIO
    TITLE "3:cjc105_3607"
    INDEX 01 00:51:50
  TRACK 47 AUDIO
    TITLE "2:cjc105_3608"
    INDEX 01 00:52:49
  TRACK 48 AUDIO
    TITLE "3:cjc105_3609"
    INDEX 01 00:53:62
  TRACK 49 AUDIO
    TITLE "2:cjc105_3610"
    INDEX 01 00:54:60
  TRACK 50 AUDIO
    TITLE "3:cjc105_3611"
    INDEX 01 00:56:16
  TRACK 51 AUDIO
    TITLE "2:cjc105_3612"
    INDEX 01 00:57:21
  TRACK 52 AUDIO
    TITLE "3:cjc105_3613"
    INDEX 01 00:58:22
  TRACK 53 AUDIO
    TITLE "2:cjc105_3614"
    INDEX 01 00:59:08
  TRACK 54 AUDIO
    TITLE "3:cjc105_3615"
    INDEX 01 01:00:13
  TRACK 55 AUDIO
    TITLE "2:cjc105_3616"
    INDEX 01 01:01:01
  TRACK 56 AUDIO
    TITLE "3:cjc105_3617"
    INDEX 01 01:02:30
  TRACK 57 AUDIO
    TITLE "2:cjc105_3618"
    INDEX 01 01:03:18
  TRACK 58 AUDIO
    TITLE "3:cjc105_3619"
    INDEX 01 01:04:48
  TRACK 59 AUDIO
    TITLE "2:cjc105_3620"
    INDEX 01 01:05:36
  TRACK 60 AUDIO
    TITLE "3:cjc105_3621"
    INDEX 01 01:06:51
  TRACK 61 AUDIO
    TITLE "2:cjc105_3622"
    INDEX 01 01:07:45
  TRACK 62 AUDIO
    TITLE "3:cjc105_3623"
    INDEX 01 01:08:68
  TRACK 63 AUDIO
    TITLE "2:cjc105_3624"
    INDEX 01 01:09:61
  TRACK 64 AUDIO
    TITLE "0:"
    INDEX 01 01:11:11
